<?xml version="1.0" encoding="UTF-8"?>
<!-- Generator: Adobe Illustrator 19.1.0, SVG Export Plug-In . SVG Version: 6.00 Build 0)  -->
<svg version="1.1" id="Layer_1" xmlns="http://www.w3.org/2000/svg" xmlns:xlink="http://www.w3.org/1999/xlink" x="0px" y="0px" viewBox="0 0 250 59.9" style="enable-background:new 0 0 250 59.9;" xml:space="preserve">
<style type="text/css">
	.st0{fill:#0191A9;}
	.st1{fill:none;}
	.st2{fill:#FFFFFF;}
	.st3{fill:#5E5E5E;}
</style>
<symbol id="BriteCore_Simple" viewBox="-197.5 -29.9 398.8 59.9">
	<g>
		<path class="st0" d="M-123.9,0c0-16.5-16.5-29.9-36.8-29.9S-197.5-16.5-197.5,0s16.5,29.9,36.8,29.9S-123.9,16.5-123.9,0z"/>
		<g>
			<path class="st1" d="M-153.8,3.9l11.1-1.5c-1.3,6.1-7.6,10.9-15.4,11.8l1.3-7.3C-156.6,5.3-155.4,4.1-153.8,3.9z"/>
			<path class="st1" d="M-164.4,6.8l1.3,7.3c-7.8-0.9-14.1-5.7-15.4-11.8l11.1,1.5C-165.9,4.1-164.7,5.3-164.4,6.8z"/>
			<path class="st1" d="M-167.5-3.9l-11.1,1.5c1.3-6.1,7.6-10.9,15.4-11.8l-1.3,7.3C-164.7-5.3-165.9-4.1-167.5-3.9z"/>
			<path class="st1" d="M-153.8-3.9c-1.6-0.2-2.8-1.4-3.1-3l-1.3-7.3c7.8,0.9,14.1,5.7,15.4,11.8L-153.8-3.9z"/>
			<path class="st2" d="M-139-1.9l14.4,1.9L-139,1.9c-1.1,8.5-9.4,15.2-19.8,15.9l-1.9,11.1l-1.9-11.1c-10.4-0.7-18.7-7.5-19.8-15.9     L-196.8,0l14.4-1.9c1.1-8.5,9.4-15.2,19.8-15.9l1.9-11.1l1.9,11.1C-148.4-17.1-140.1-10.4-139-1.9z M-142.7,2.4l-11.1,1.5     c-1.6,0.2-2.8,1.4-3.1,3l-1.3,7.3C-150.3,13.3-144,8.5-142.7,2.4z M-163.2,14.2l-1.3-7.3c-0.3-1.6-1.5-2.7-3.1-3l-11.1-1.5     C-177.3,8.5-171,13.3-163.2,14.2z M-178.6-2.4l11.1-1.5c1.6-0.2,2.8-1.4,3.1-3l1.3-7.3C-171-13.3-177.3-8.5-178.6-2.4z      M-158.1-14.2l1.3,7.3c0.3,1.6,1.5,2.7,3.1,3l11.1,1.5C-144-8.5-150.3-13.3-158.1-14.2z"/>
		</g>
	</g>
	<g>
		<path class="st3" d="M-105.9,24h18c3,0,5.5-0.3,7.6-1c2.1-0.7,3.7-1.6,5-2.8s2.2-2.5,2.8-4c0.6-1.5,0.9-3.1,0.9-4.7    c0-1.5-0.3-2.9-0.8-4.1c-0.6-1.2-1.2-2.2-1.9-3c-0.7-0.8-1.5-1.5-2.3-2c-0.8-0.5-1.5-0.8-2.1-0.9c0.9-0.2,1.9-0.6,2.9-1.1    c2-0.9,3.6-2.2,4.9-4c1.3-1.8,1.9-4,1.9-6.6c0-2.5-0.4-4.6-1.3-6.3c-0.9-1.7-2.1-3.1-3.7-4.2c-1.6-1.1-3.6-1.9-5.9-2.4    c-2.3-0.5-4.9-0.8-7.8-0.8h-18V24z M-88.9,4.8c0.8,0,1.6,0.1,2.4,0.3c0.8,0.2,1.5,0.5,2.1,0.9c0.6,0.4,1.1,1,1.5,1.7    c0.4,0.7,0.6,1.5,0.6,2.6c0,1.1-0.2,1.9-0.6,2.6c-0.4,0.7-0.9,1.2-1.5,1.7c-0.6,0.4-1.3,0.7-2.1,0.9c-0.8,0.2-1.6,0.3-2.3,0.3    h-6.4V4.8H-88.9z M-88.3-15.6c0.8,0,1.6,0.1,2.6,0.2c1,0.1,1.8,0.4,2.7,0.8c0.8,0.4,1.5,1.1,2.1,1.9c0.6,0.8,0.8,1.9,0.8,3.4    c0,1.3-0.3,2.4-0.8,3.2c-0.5,0.8-1.2,1.5-2,1.9c-0.8,0.5-1.7,0.8-2.7,0.9c-1,0.2-1.8,0.3-2.7,0.3h-7.1v-12.5H-88.3z"/>
		<path class="st3" d="M-62.6,9.8h9.9l0.4-4.2c0.9,1.2,2.1,2.3,3.6,3.3c1.5,1.1,3.5,1.6,5.9,1.6c0.9,0,1.7,0,2.3-0.1    c0.6-0.1,1.3-0.3,1.9-0.5l-1.7-9.1C-41.3,1-42.6,1.1-44,1.1c-2.4,0-4.4-0.7-5.9-2.2c-1.5-1.5-2.3-3.5-2.3-6.2V-24h-10.4V9.8z"/>
		<path class="st3" d="M-34.3,24h11.1v-9.3h-11.1V24z M-34,9.8h10.4V-24H-34V9.8z"/>
		<path class="st3" d="M-13.2,1.6h-5.3v8.1h5.3v11.1h10.4V9.8h8.7V1.6h-8.7v-13.3c0-1.6,0.3-2.9,1-3.8c0.6-0.9,1.7-1.3,3.1-1.3    c1.1,0,2,0.2,2.7,0.5c0.8,0.4,1.5,0.8,2.2,1.3l4.2-6.3C7-23.9,3.5-25.2-0.4-25.2c-2.4,0-4.4,0.3-6,1s-3,1.7-4,2.9    c-1,1.2-1.7,2.7-2.2,4.4c-0.4,1.7-0.6,3.6-0.6,5.8V1.6z"/>
		<path class="st3" d="M44.6-20.3c-0.4-0.2-1-0.6-1.7-1.2c-0.8-0.6-1.8-1.1-3-1.6c-1.2-0.5-2.7-1-4.4-1.4c-1.7-0.4-3.6-0.6-5.8-0.6    c-2.9,0-5.5,0.4-7.8,1.3c-2.3,0.9-4.3,2.1-5.9,3.7s-2.8,3.5-3.7,5.7c-0.8,2.2-1.3,4.7-1.3,7.4c0,2.4,0.4,4.6,1.2,6.8    c0.8,2.2,1.9,4.1,3.4,5.7c1.5,1.6,3.3,2.9,5.5,3.9c2.2,1,4.6,1.5,7.3,1.5c2.7,0,5.1-0.5,7.2-1.4c2.1-1,3.8-2.3,5.2-4    c1.4-1.7,2.5-3.7,3.2-6.1c0.7-2.4,1.1-5,1.1-7.8v-1.7h-24c0-1.8,0.9-3.4,2.4-4.8c1.6-1.4,3.7-2.1,6.4-2.1c2.7,0,4.9,0.4,6.6,1.2    c1.7,0.8,2.9,1.5,3.7,2.1L44.6-20.3z M35.6-3.6c0,0.7-0.1,1.5-0.4,2.2c-0.3,0.7-0.7,1.4-1.3,2.1c-0.6,0.6-1.3,1.1-2.2,1.5    c-0.9,0.4-1.9,0.6-3.1,0.6s-2.3-0.2-3.2-0.6c-0.9-0.4-1.7-0.9-2.3-1.5c-0.6-0.6-1.1-1.3-1.4-2.1c-0.3-0.7-0.5-1.5-0.5-2.2H35.6z"/>
		<path class="st3" d="M95.5-15.1c-1-1.4-2.2-2.7-3.7-3.9c-1.4-1.2-3-2.3-4.8-3.2c-1.8-0.9-3.6-1.6-5.7-2.2c-2-0.5-4.2-0.8-6.4-0.8    c-3.6,0-7,0.6-10,1.9c-3,1.2-5.6,3-7.8,5.2c-2.2,2.2-3.9,4.9-5.1,7.9c-1.2,3-1.8,6.4-1.8,10c0,3.6,0.6,6.9,1.8,10    c1.2,3.1,2.9,5.8,5.1,8.1c2.2,2.3,4.8,4.1,7.8,5.4c3,1.3,6.4,2,10.1,2c4.5,0,8.4-0.8,11.7-2.4c3.3-1.6,6.1-4,8.3-7.1l-7.4-7.1    c-1.4,2-3.1,3.6-5.1,4.9c-2,1.2-4.3,1.8-7.1,1.8c-2.2,0-4.1-0.4-5.8-1.2c-1.7-0.8-3.2-1.9-4.4-3.3c-1.2-1.4-2.1-3-2.8-4.9    c-0.6-1.8-1-3.8-1-5.9c0-2.1,0.3-4.1,1-5.9c0.6-1.8,1.6-3.4,2.8-4.8c1.2-1.3,2.6-2.4,4.3-3.2c1.7-0.8,3.6-1.2,5.7-1.2    c1.7,0,3.2,0.2,4.5,0.5s2.4,0.8,3.4,1.4c1,0.6,1.9,1.3,2.6,2.1c0.8,0.8,1.5,1.6,2.2,2.4L95.5-15.1z"/>
		<path class="st3" d="M99.5-7.1c0,2.5,0.4,4.8,1.3,7c0.9,2.2,2.1,4.1,3.7,5.7c1.6,1.6,3.5,2.9,5.7,3.9c2.2,0.9,4.7,1.4,7.4,1.4    c2.7,0,5.1-0.5,7.3-1.4s4.1-2.2,5.7-3.9c1.6-1.6,2.8-3.5,3.7-5.7c0.9-2.2,1.3-4.5,1.3-7c0-2.5-0.4-4.8-1.3-7    c-0.9-2.2-2.1-4.1-3.7-5.7c-1.6-1.6-3.5-2.9-5.7-3.9s-4.7-1.4-7.3-1.4c-2.7,0-5.1,0.5-7.4,1.4c-2.2,1-4.1,2.3-5.7,3.9    c-1.6,1.6-2.8,3.5-3.7,5.7C99.9-11.9,99.5-9.6,99.5-7.1z M117.6-16.2c1.3,0,2.4,0.3,3.5,0.8s1.9,1.2,2.6,2.1    c0.7,0.9,1.2,1.8,1.5,2.9c0.3,1.1,0.5,2.2,0.5,3.3s-0.2,2.3-0.5,3.3c-0.3,1.1-0.9,2-1.5,2.9c-0.7,0.8-1.5,1.5-2.6,2    s-2.2,0.8-3.5,0.8c-1.3,0-2.5-0.3-3.5-0.8c-1-0.5-1.9-1.2-2.6-2c-0.7-0.8-1.2-1.8-1.5-2.9s-0.5-2.2-0.5-3.3s0.2-2.3,0.5-3.3    c0.4-1.1,0.9-2.1,1.5-2.9c0.7-0.9,1.5-1.5,2.6-2.1C115.2-15.9,116.3-16.2,117.6-16.2z"/>
		<path class="st3" d="M141.8,9.8h9.9l0.4-4.2c0.9,1.2,2.1,2.3,3.6,3.3c1.5,1.1,3.5,1.6,5.9,1.6c0.9,0,1.7,0,2.3-0.1    c0.6-0.1,1.3-0.3,1.9-0.5l-1.7-9.1c-1.1,0.3-2.3,0.5-3.7,0.5c-2.4,0-4.4-0.7-5.9-2.2c-1.5-1.5-2.3-3.5-2.3-6.2V-24h-10.4V9.8z"/>
		<path class="st3" d="M200.6-20.3c-0.4-0.2-1-0.6-1.7-1.2c-0.8-0.6-1.8-1.1-3-1.6c-1.2-0.5-2.7-1-4.4-1.4c-1.7-0.4-3.6-0.6-5.8-0.6    c-2.9,0-5.5,0.4-7.8,1.3c-2.3,0.9-4.3,2.1-5.9,3.7c-1.6,1.6-2.8,3.5-3.7,5.7c-0.8,2.2-1.3,4.7-1.3,7.4c0,2.4,0.4,4.6,1.2,6.8    c0.8,2.2,1.9,4.1,3.4,5.7c1.5,1.6,3.3,2.9,5.5,3.9c2.2,1,4.6,1.5,7.3,1.5c2.7,0,5.1-0.5,7.2-1.4c2.1-1,3.8-2.3,5.2-4    c1.4-1.7,2.5-3.7,3.2-6.1c0.7-2.4,1.1-5,1.1-7.8v-1.7h-24c0-1.8,0.9-3.4,2.4-4.8c1.6-1.4,3.7-2.1,6.4-2.1c2.7,0,4.9,0.4,6.6,1.2    c1.7,0.8,2.9,1.5,3.7,2.1L200.6-20.3z M191.5-3.6c0,0.7-0.1,1.5-0.4,2.2c-0.3,0.7-0.7,1.4-1.3,2.1c-0.6,0.6-1.3,1.1-2.2,1.5    c-0.9,0.4-1.9,0.6-3.1,0.6c-1.2,0-2.3-0.2-3.2-0.6c-0.9-0.4-1.7-0.9-2.3-1.5c-0.6-0.6-1.1-1.3-1.4-2.1c-0.3-0.7-0.5-1.5-0.5-2.2    H191.5z"/>
	</g>
</symbol>
<use xlink:href="#BriteCore_Simple" width="200" height="59.9" id="XMLID_1_" x="-180px" y="-29.9" transform="matrix(1 0 0 -1 197.4576 29.9256)" style="overflow:visible;"/>
</svg>